<mxfile host="app.diagrams.net" modified="2023-09-28T07:31:02.210Z" agent="Mozilla/5.0 (Windows NT 10.0; Win64; x64) AppleWebKit/537.36 (KHTML, like Gecko) Chrome/117.0.0.0 Safari/537.36" etag="NXJyFsoFi16fQ6rg21vv" version="21.8.2" type="device">
  <diagram name="Page-1" id="178qFFSoT5_V5o4KQSv6">
    <mxGraphModel dx="1050" dy="566" grid="1" gridSize="10" guides="1" tooltips="1" connect="1" arrows="1" fold="1" page="1" pageScale="1" pageWidth="850" pageHeight="1100" math="0" shadow="0">
      <root>
        <mxCell id="0" />
        <mxCell id="1" parent="0" />
        <mxCell id="aNgC7qJIA_dCoSDiiv_m-1" value="" style="rounded=0;whiteSpace=wrap;html=1;" vertex="1" parent="1">
          <mxGeometry x="214" y="190" width="370" height="50" as="geometry" />
        </mxCell>
        <mxCell id="aNgC7qJIA_dCoSDiiv_m-2" value="" style="endArrow=none;html=1;rounded=0;entryX=0.5;entryY=0;entryDx=0;entryDy=0;exitX=0.5;exitY=1;exitDx=0;exitDy=0;" edge="1" parent="1" source="aNgC7qJIA_dCoSDiiv_m-1" target="aNgC7qJIA_dCoSDiiv_m-1">
          <mxGeometry width="50" height="50" relative="1" as="geometry">
            <mxPoint x="400" y="412" as="sourcePoint" />
            <mxPoint x="450" y="362" as="targetPoint" />
          </mxGeometry>
        </mxCell>
        <mxCell id="aNgC7qJIA_dCoSDiiv_m-4" style="edgeStyle=orthogonalEdgeStyle;rounded=0;orthogonalLoop=1;jettySize=auto;html=1;" edge="1" parent="1" source="aNgC7qJIA_dCoSDiiv_m-3">
          <mxGeometry relative="1" as="geometry">
            <mxPoint x="190" y="215" as="targetPoint" />
          </mxGeometry>
        </mxCell>
        <mxCell id="aNgC7qJIA_dCoSDiiv_m-3" value="Fetch" style="text;html=1;align=center;verticalAlign=middle;resizable=0;points=[];autosize=1;strokeColor=none;fillColor=none;" vertex="1" parent="1">
          <mxGeometry x="95" y="200" width="50" height="30" as="geometry" />
        </mxCell>
        <mxCell id="aNgC7qJIA_dCoSDiiv_m-6" value="" style="verticalLabelPosition=bottom;verticalAlign=top;html=1;shape=mxgraph.basic.rect;fillColor2=none;strokeWidth=1;size=20;indent=5;" vertex="1" parent="1">
          <mxGeometry x="379" y="40" width="40" height="30" as="geometry" />
        </mxCell>
        <mxCell id="aNgC7qJIA_dCoSDiiv_m-11" value="" style="edgeStyle=orthogonalEdgeStyle;rounded=0;orthogonalLoop=1;jettySize=auto;html=1;" edge="1" parent="1" source="aNgC7qJIA_dCoSDiiv_m-7" target="aNgC7qJIA_dCoSDiiv_m-9">
          <mxGeometry relative="1" as="geometry" />
        </mxCell>
        <mxCell id="aNgC7qJIA_dCoSDiiv_m-12" style="edgeStyle=orthogonalEdgeStyle;rounded=0;orthogonalLoop=1;jettySize=auto;html=1;" edge="1" parent="1" source="aNgC7qJIA_dCoSDiiv_m-7">
          <mxGeometry relative="1" as="geometry">
            <mxPoint x="396" y="90" as="targetPoint" />
          </mxGeometry>
        </mxCell>
        <mxCell id="aNgC7qJIA_dCoSDiiv_m-7" value="PC" style="text;html=1;align=center;verticalAlign=middle;resizable=0;points=[];autosize=1;strokeColor=none;fillColor=none;" vertex="1" parent="1">
          <mxGeometry x="376" y="40" width="40" height="30" as="geometry" />
        </mxCell>
        <mxCell id="aNgC7qJIA_dCoSDiiv_m-10" value="" style="edgeStyle=orthogonalEdgeStyle;rounded=0;orthogonalLoop=1;jettySize=auto;html=1;" edge="1" parent="1" source="aNgC7qJIA_dCoSDiiv_m-8" target="aNgC7qJIA_dCoSDiiv_m-1">
          <mxGeometry relative="1" as="geometry">
            <Array as="points">
              <mxPoint x="399" y="180" />
              <mxPoint x="399" y="180" />
            </Array>
          </mxGeometry>
        </mxCell>
        <mxCell id="aNgC7qJIA_dCoSDiiv_m-8" value="" style="verticalLabelPosition=bottom;verticalAlign=top;html=1;shape=mxgraph.basic.rect;fillColor2=none;strokeWidth=1;size=20;indent=5;" vertex="1" parent="1">
          <mxGeometry x="339" y="100" width="120" height="60" as="geometry" />
        </mxCell>
        <mxCell id="aNgC7qJIA_dCoSDiiv_m-9" value="Memory" style="text;html=1;align=center;verticalAlign=middle;resizable=0;points=[];autosize=1;strokeColor=none;fillColor=none;" vertex="1" parent="1">
          <mxGeometry x="361" y="115" width="70" height="30" as="geometry" />
        </mxCell>
      </root>
    </mxGraphModel>
  </diagram>
</mxfile>
